This is a complete audio CD image.


Format: WAV

Disc 1 of 1


Please Seed!


You will need Exact Audio Copy (http://www.exactaudiocopy.de/) to properly write the audio disc.

1.	"The Key to Gramercy Park"   	  	3:13
2.	"Winners"   	  			4:22
3.	"Brand New Love"   	  		4:34
4.	"Mansion World"   	 	 	5:02
5.	"Lake Waramaug"   	  		4:24
6.	"The Elements"   		  	5:20
7.	"Flowing Glower"   		  	4:58
8.	"Future Years"   		  	5:26
9.	"She Likes Big Words"   	  	3:59
10.	"Cruella"   	  			5:55
11.	"Seagulls (The Macroprosopus)"   	5:57
12.	"Le Cirque En Rose (Obsolescence)"   	4:55
13.	"Tom Sawyer"   	  			4:53
14.	"Commencement"   		  	5:16

Specifications
Release Date: 14 May 2002
Label: Dreamworks
Run Time: 68 minutes


Exact Audio Copy V1.0 beta 3 from 29. August 2011

EAC extraction logfile from 20. May 2013, 17:59

Deadsy / Commencement

Used drive  : PLEXTOR DVDR   PX-716A   Adapter: 3  ID: 0

Read mode               : Secure
Utilize accurate stream : Yes
Defeat audio cache      : Yes
Make use of C2 pointers : Yes

Read offset correction                      : 30
Overread into Lead-In and Lead-Out          : No
Fill up missing offset samples with silence : Yes
Delete leading and trailing silent blocks   : No
Null samples used in CRC calculations       : Yes
Used interface                              : Native Win32 interface for Win NT & 2000

Used output format : Internal WAV Routines
Sample format      : 44.100 Hz; 16 Bit; Stereo


TOC of the extracted CD

     Track |   Start  |  Length  | Start sector | End sector 
    ---------------------------------------------------------
        1  |  0:00.00 |  3:12.70 |         0    |    14469   
        2  |  3:12.70 |  4:22.38 |     14470    |    34157   
        3  |  7:35.33 |  4:34.57 |     34158    |    54764   
        4  | 12:10.15 |  5:02.40 |     54765    |    77454   
        5  | 17:12.55 |  4:23.65 |     77455    |    97244   
        6  | 21:36.45 |  5:20.73 |     97245    |   121317   
        7  | 26:57.43 |  4:58.07 |    121318    |   143674   
        8  | 31:55.50 |  5:26.48 |    143675    |   168172   
        9  | 37:22.23 |  3:59.67 |    168173    |   186164   
       10  | 41:22.15 |  5:54.38 |    186165    |   212752   
       11  | 47:16.53 |  5:57.12 |    212753    |   239539   
       12  | 53:13.65 |  4:55.53 |    239540    |   261717   
       13  | 58:09.43 |  4:52.57 |    261718    |   283674   
       14  | 63:02.25 |  5:16.15 |    283675    |   307389   


Range status and errors

Selected range

     Peak level 98.8 %
     Extraction speed 8.8 X
     Range quality 100.0 %
     Copy CRC EF5EF16D
     Copy OK

No errors occurred

 
AccurateRip summary
 
Track  1  accurately ripped (confidence 6)  [313FC703]  (AR v2)
Track  2  accurately ripped (confidence 6)  [4EFA31A7]  (AR v2)
Track  3  accurately ripped (confidence 6)  [C09A7D07]  (AR v2)
Track  4  accurately ripped (confidence 6)  [5A4260D5]  (AR v2)
Track  5  accurately ripped (confidence 6)  [A8416DF4]  (AR v2)
Track  6  accurately ripped (confidence 6)  [C0D8E2A0]  (AR v2)
Track  7  accurately ripped (confidence 6)  [B5737234]  (AR v2)
Track  8  accurately ripped (confidence 6)  [3363D0A3]  (AR v2)
Track  9  accurately ripped (confidence 6)  [E79D1016]  (AR v2)
Track 10  accurately ripped (confidence 6)  [A5DFD545]  (AR v2)
Track 11  accurately ripped (confidence 6)  [32F5B7DC]  (AR v2)
Track 12  accurately ripped (confidence 6)  [6889D5A1]  (AR v2)
Track 13  accurately ripped (confidence 6)  [00F48639]  (AR v2)
Track 14  accurately ripped (confidence 6)  [07A9404C]  (AR v2)
 
All tracks accurately ripped

End of status report